<?xml version="1.0" encoding="UTF-8" standalone="no"?>
<svg
   version="1.1"
   width="1080"
   height="1080"
   viewBox="0 0 1080 1080"
   xml:space="preserve"
   id="svg7"
   sodipodi:docname="airpods-case-black.svg"
   inkscape:version="1.3.2 (091e20ef0f, 2023-11-25, custom)"
   xmlns:inkscape="http://www.inkscape.org/namespaces/inkscape"
   xmlns:sodipodi="http://sodipodi.sourceforge.net/DTD/sodipodi-0.dtd"
   xmlns="http://www.w3.org/2000/svg"
   xmlns:svg="http://www.w3.org/2000/svg"><sodipodi:namedview
   id="namedview7"
   pagecolor="#ffffff"
   bordercolor="#000000"
   borderopacity="0.25"
   inkscape:showpageshadow="2"
   inkscape:pageopacity="0.0"
   inkscape:pagecheckerboard="0"
   inkscape:deskcolor="#d1d1d1"
   inkscape:zoom="0.7212963"
   inkscape:cx="540"
   inkscape:cy="540"
   inkscape:window-width="1920"
   inkscape:window-height="976"
   inkscape:window-x="0"
   inkscape:window-y="0"
   inkscape:window-maximized="1"
   inkscape:current-layer="svg7" />
<desc
   id="desc1">Created with Fabric.js 5.2.4</desc>
<defs
   id="defs1">
</defs>
<rect
   x="0"
   y="0"
   width="100%"
   height="100%"
   fill="transparent"
   id="rect1" />
<g
   transform="matrix(1 0 0 1 540 540)"
   id="89a23d3a-08b8-48f6-9f70-1feb676fe7af">
<rect
   style="stroke: none; stroke-width: 1; stroke-dasharray: none; stroke-linecap: butt; stroke-dashoffset: 0; stroke-linejoin: miter; stroke-miterlimit: 4; fill: rgb(255,255,255); fill-rule: nonzero; opacity: 1; visibility: hidden;"
   vector-effect="non-scaling-stroke"
   x="-540"
   y="-540"
   rx="0"
   ry="0"
   width="1080"
   height="1080"
   id="rect2" />
</g>
<g
   transform="matrix(1 0 0 1 540 540)"
   id="0e213be1-b026-4b8c-b2c2-8995ae6d7998">
</g>
<g
   transform="translate(540.00367,540)"
   id="g7">
<g
   vector-effect="non-scaling-stroke"
   id="g6">
		<g
   transform="scale(33.33)"
   id="g2">
<path
   style="opacity:1;fill:#000000;fill-rule:nonzero;stroke:none;stroke-width:1;stroke-linecap:butt;stroke-linejoin:miter;stroke-miterlimit:4;stroke-dasharray:none;stroke-dashoffset:0"
   vector-effect="non-scaling-stroke"
   transform="translate(-12.01,-12)"
   d="M 15.1199,22.75 H 8.87988 c -4.03,0 -6.44,-0.79 -6.88,-4.84 -0.08,-0.58 -0.12,-1.27 -0.12,-2.16 v -7.5 c 0,-0.86 0.04,-1.57 0.12,-2.17 0.46,-4.06 2.77,-4.83 6.89,-4.83 h 6.25002 c 4.12,0 6.44,0.77 6.88,4.85 0.1,0.67 0.12,1.43 0.12,2.15 v 7.5 c 0,0.87 -0.04,1.56 -0.12,2.18 -0.46,4.05 -2.78,4.82 -6.9,4.82 z m -6.24002,-20 c -4.25,0 -5.11,0.92 -5.4,3.51 -0.08,0.55 -0.11,1.2 -0.11,1.99 v 7.5 c 0,0.82 0.04,1.44 0.11,1.97 0.29,2.61 1.14,3.53 5.4,3.53 h 6.24002 c 4.25,0 5.11,-0.92 5.4,-3.5 0.07,-0.55 0.11,-1.2 0.11,-2 v -7.5 c 0,-0.66 -0.01,-1.36 -0.1,-1.96 -0.29,-2.62 -1.14,-3.54 -5.4,-3.54 z"
   stroke-linecap="round"
   id="path2" />
</g>
		<g
   transform="matrix(33.33,0,0,33.33,239,-102.67)"
   id="g3">
<path
   style="opacity:1;fill:#000000;fill-rule:nonzero;stroke:none;stroke-width:1;stroke-linecap:butt;stroke-linejoin:miter;stroke-miterlimit:4;stroke-dasharray:none;stroke-dashoffset:0"
   vector-effect="non-scaling-stroke"
   transform="translate(-19.18,-8.92)"
   d="m 21.2299,9.67001 h -4.1 c -0.41,0 -0.75,-0.34 -0.75,-0.75 0,-0.41 0.34,-0.75 0.75,-0.75 h 4.1 c 0.41,0 0.75,0.34 0.75,0.75 0,0.41 -0.34,0.75 -0.75,0.75 z"
   stroke-linecap="round"
   id="path3" />
</g>
		<g
   transform="matrix(33.33,0,0,33.33,-239.66,-102.67)"
   id="g4">
<path
   style="opacity:1;fill:#000000;fill-rule:nonzero;stroke:none;stroke-width:1;stroke-linecap:butt;stroke-linejoin:miter;stroke-miterlimit:4;stroke-dasharray:none;stroke-dashoffset:0"
   vector-effect="non-scaling-stroke"
   transform="translate(-4.82,-8.92)"
   d="m 6.87002,9.67001 h -4.1 c -0.41,0 -0.75,-0.34 -0.75,-0.75 0,-0.41 0.34,-0.75 0.75,-0.75 h 4.1 c 0.41,0 0.75,0.34 0.75,0.75 0,0.41 -0.34,0.75 -0.75,0.75 z"
   stroke-linecap="round"
   id="path4" />
</g>
		<g
   transform="matrix(33.33,0,0,33.33,-0.33,-102.67)"
   id="g5">
<path
   style="opacity:1;fill:#000000;fill-rule:nonzero;stroke:none;stroke-width:1;stroke-linecap:butt;stroke-linejoin:miter;stroke-miterlimit:4;stroke-dasharray:none;stroke-dashoffset:0"
   vector-effect="non-scaling-stroke"
   transform="translate(-12,-8.92)"
   d="M 15.0801,11.72 H 8.92012 c -0.75,0 -1.47,-0.3 -1.99,-0.84 -0.52,-0.5 -0.81,-1.21 -0.81,-1.96 0,-1.54 1.26,-2.8 2.8,-2.8 h 6.14998 c 0.75,0 1.47,0.31 1.99,0.84 0.52,0.51 0.82,1.21 0.82,1.96 0,1.54 -1.26,2.8 -2.8,2.8 z M 8.92012,7.62 c -0.72,0 -1.3,0.58 -1.3,1.3 0,0.35 0.13,0.66999 0.37,0.89999 0.25,0.26001 0.58,0.40001 0.93,0.40001 h 6.15998 c 0.72,0 1.3,-0.58 1.3,-1.3 0,-0.34 -0.14,-0.66 -0.38,-0.9 -0.25,-0.26 -0.58,-0.4 -0.93,-0.4 z"
   stroke-linecap="round"
   id="path5" />
</g>
</g>
</g>
</svg>
