<?xml version="1.0" encoding="UTF-8" standalone="no"?>
<svg
   version="1.1"
   width="1080"
   height="1080"
   viewBox="0 0 1080 1080"
   xml:space="preserve"
   id="svg8"
   xmlns="http://www.w3.org/2000/svg"
   xmlns:svg="http://www.w3.org/2000/svg">
<desc
   id="desc1">Created with Fabric.js 5.2.4</desc>
<defs
   id="defs1">

		
		
		
		
		
		
</defs>
<g
   transform="matrix(1 0 0 1 540 540)"
   id="073354b4-1c14-4e69-9840-03906f494084">
<rect
   style="stroke: none; stroke-width: 1; stroke-dasharray: none; stroke-linecap: butt; stroke-dashoffset: 0; stroke-linejoin: miter; stroke-miterlimit: 4; fill: rgb(255,255,255); fill-rule: nonzero; opacity: 1; visibility: hidden;"
   vector-effect="non-scaling-stroke"
   x="-540"
   y="-540"
   rx="0"
   ry="0"
   width="1080"
   height="1080"
   id="rect1" />
</g>
<g
   transform="matrix(1 0 0 1 540 540)"
   id="fe3007dd-6180-4b4d-bb81-d8dffa39668d">
</g>
<g
   id="g1"
   transform="translate(-191.82617,-0.00352)"><g
     transform="translate(539.99617,589.83352)"
     id="g8">
<g
   transform="matrix(33.33,0,0,33.33,-222.84,-207.33)"
   id="g2">

</g><g
   transform="matrix(33.33,0,0,33.33,191.83,-49.83)"
   id="g3">
<path
   style="opacity:1;fill:#ffffff;fill-rule:nonzero;stroke:none;stroke-width:1;stroke-linecap:butt;stroke-linejoin:miter;stroke-miterlimit:4;stroke-dasharray:none;stroke-dashoffset:0"
   vector-effect="non-scaling-stroke"
   transform="translate(-17.75,-10.5)"
   d="m 15.39,19.75 c -1.46,0 -2.64,-1.18 -2.64,-2.64 V 4.83002 c 0,-1.98 1.61,-3.58002 3.58,-3.58002 h 1.89 c 2.5,0 4.53,2.03003 4.53,4.53003 0,2.5 -2.03,4.52997 -4.53,4.52997 h -0.2 v 6.81 c 0.01,1.45 -1.18,2.63 -2.63,2.63 z m 0.94,-17 c -1.15,0 -2.08,0.93002 -2.08,2.08002 V 17.11 c 0,0.63 0.51,1.14 1.14,1.14 0.63,0 1.14,-0.51 1.14,-1.14 V 9.54999 c 0,-0.41 0.34,-0.75 0.75,-0.75 h 0.95 c 1.67,0 3.03,-1.35997 3.03,-3.02997 0,-1.67 -1.36,-3.03003 -3.03,-3.03003 h -1.9 z"
   stroke-linecap="round"
   id="path3" />
</g><g
   transform="matrix(33.33,0,0,33.33,223.15,-207.33)"
   id="g4">
<path
   style="opacity:1;fill:#ffffff;fill-rule:nonzero;stroke:none;stroke-width:1;stroke-linecap:butt;stroke-linejoin:miter;stroke-miterlimit:4;stroke-dasharray:none;stroke-dashoffset:0"
   vector-effect="non-scaling-stroke"
   transform="translate(-18.69,-5.78)"
   d="m 18.2197,7.47003 c -0.41,0 -0.75,-0.34 -0.75,-0.75 0,-0.41 0.34,-0.75 0.75,-0.75 0.11,0 0.19,-0.08995 0.19,-0.19995 0,-0.11 -0.09,-0.19 -0.19,-0.19 -0.41,0 -0.75,-0.34 -0.75,-0.75 0,-0.41 0.34,-0.75 0.75,-0.75 0.93,0 1.69,0.76 1.69,1.69 0,0.93 -0.75,1.69995 -1.69,1.69995 z"
   stroke-linecap="round"
   id="path4" />
</g>
</g></g>
</svg>
