<?xml version="1.0" encoding="UTF-8" standalone="no"?>
<svg
   version="1.1"
   width="1080"
   height="1080"
   viewBox="0 0 1080 1080"
   xml:space="preserve"
   id="svg8"
   sodipodi:docname="airpods-pair-white.svg"
   inkscape:version="1.3.2 (091e20ef0f, 2023-11-25, custom)"
   xmlns:inkscape="http://www.inkscape.org/namespaces/inkscape"
   xmlns:sodipodi="http://sodipodi.sourceforge.net/DTD/sodipodi-0.dtd"
   xmlns="http://www.w3.org/2000/svg"
   xmlns:svg="http://www.w3.org/2000/svg"><sodipodi:namedview
   id="namedview8"
   pagecolor="#ffffff"
   bordercolor="#000000"
   borderopacity="0.25"
   inkscape:showpageshadow="2"
   inkscape:pageopacity="0.0"
   inkscape:pagecheckerboard="0"
   inkscape:deskcolor="#d1d1d1"
   inkscape:zoom="0.7212963"
   inkscape:cx="540"
   inkscape:cy="540"
   inkscape:window-width="1920"
   inkscape:window-height="976"
   inkscape:window-x="0"
   inkscape:window-y="0"
   inkscape:window-maximized="1"
   inkscape:current-layer="svg8" />
<desc
   id="desc1">Created with Fabric.js 5.2.4</desc>
<defs
   id="defs1">
</defs>
<g
   transform="matrix(1 0 0 1 540 540)"
   id="073354b4-1c14-4e69-9840-03906f494084">
<rect
   style="stroke: none; stroke-width: 1; stroke-dasharray: none; stroke-linecap: butt; stroke-dashoffset: 0; stroke-linejoin: miter; stroke-miterlimit: 4; fill: rgb(255,255,255); fill-rule: nonzero; opacity: 1; visibility: hidden;"
   vector-effect="non-scaling-stroke"
   x="-540"
   y="-540"
   rx="0"
   ry="0"
   width="1080"
   height="1080"
   id="rect1" />
</g>
<g
   transform="matrix(1 0 0 1 540 540)"
   id="fe3007dd-6180-4b4d-bb81-d8dffa39668d">
</g>
<g
   transform="translate(539.99617,589.83352)"
   id="g8">
<g
   vector-effect="non-scaling-stroke"
   id="g7">
		<g
   transform="matrix(33.33,0,0,33.33,-191.83,-50)"
   id="g1">
<path
   style="opacity:1;fill:#ffffff;fill-rule:nonzero;stroke:none;stroke-width:1;stroke-linecap:butt;stroke-linejoin:miter;stroke-miterlimit:4;stroke-dasharray:none;stroke-dashoffset:0"
   vector-effect="non-scaling-stroke"
   transform="translate(-6.24,-10.49)"
   d="m 8.61023,19.75 c -1.46,0 -2.63998,-1.18 -2.63998,-2.64 V 10.3 H 5.77023 c -2.5,0 -4.53,-2.02998 -4.53,-4.52998 0,-2.5 2.03,-4.53003 4.53,-4.53003 h 1.89002 c 1.98,0 3.57995,1.61002 3.57995,3.58002 V 17.1 c 0.01,1.47 -1.17,2.65 -2.62997,2.65 z m -2.82999,-17 c -1.67,0 -3.03,1.36003 -3.03,3.03003 0,1.67 1.36,3.02997 3.03,3.02997 h 0.95002 c 0.40999,0 0.75,0.34 0.75,0.75 v 7.56 c 0,0.63 0.50998,1.14 1.13998,1.14 0.63,0 1.14001,-0.51 1.14001,-1.14 V 4.84003 c 0,-1.15 -0.93001,-2.08002 -2.08001,-2.08002 h -1.9 z"
   stroke-linecap="round"
   id="path1" />
</g>
		<g
   transform="matrix(33.33,0,0,33.33,-222.84,-207.33)"
   id="g2">
<path
   style="opacity:1;fill:#ffffff;fill-rule:nonzero;stroke:none;stroke-width:1;stroke-linecap:butt;stroke-linejoin:miter;stroke-miterlimit:4;stroke-dasharray:none;stroke-dashoffset:0"
   vector-effect="non-scaling-stroke"
   transform="translate(-5.31,-5.78)"
   d="m 5.77985,7.47003 c -0.93,0 -1.69001,-0.75995 -1.69001,-1.69995 0,-0.94 0.76001,-1.69 1.69001,-1.69 0.41,0 0.75,0.34 0.75,0.75 0,0.41 -0.34,0.75 -0.75,0.75 -0.11,0 -0.19001,0.09 -0.19001,0.19 0,0.1 0.09001,0.19995 0.19001,0.19995 0.41,0 0.75,0.34 0.75,0.75 0,0.41 -0.34,0.75 -0.75,0.75 z"
   stroke-linecap="round"
   id="path2" />
</g>
		<g
   transform="matrix(33.33,0,0,33.33,191.83,-49.83)"
   id="g3">
<path
   style="opacity:1;fill:#ffffff;fill-rule:nonzero;stroke:none;stroke-width:1;stroke-linecap:butt;stroke-linejoin:miter;stroke-miterlimit:4;stroke-dasharray:none;stroke-dashoffset:0"
   vector-effect="non-scaling-stroke"
   transform="translate(-17.75,-10.5)"
   d="m 15.39,19.75 c -1.46,0 -2.64,-1.18 -2.64,-2.64 V 4.83002 c 0,-1.98 1.61,-3.58002 3.58,-3.58002 h 1.89 c 2.5,0 4.53,2.03003 4.53,4.53003 0,2.5 -2.03,4.52997 -4.53,4.52997 h -0.2 v 6.81 c 0.01,1.45 -1.18,2.63 -2.63,2.63 z m 0.94,-17 c -1.15,0 -2.08,0.93002 -2.08,2.08002 V 17.11 c 0,0.63 0.51,1.14 1.14,1.14 0.63,0 1.14,-0.51 1.14,-1.14 V 9.54999 c 0,-0.41 0.34,-0.75 0.75,-0.75 h 0.95 c 1.67,0 3.03,-1.35997 3.03,-3.02997 0,-1.67 -1.36,-3.03003 -3.03,-3.03003 h -1.9 z"
   stroke-linecap="round"
   id="path3" />
</g>
		<g
   transform="matrix(33.33,0,0,33.33,223.15,-207.33)"
   id="g4">
<path
   style="opacity:1;fill:#ffffff;fill-rule:nonzero;stroke:none;stroke-width:1;stroke-linecap:butt;stroke-linejoin:miter;stroke-miterlimit:4;stroke-dasharray:none;stroke-dashoffset:0"
   vector-effect="non-scaling-stroke"
   transform="translate(-18.69,-5.78)"
   d="m 18.2197,7.47003 c -0.41,0 -0.75,-0.34 -0.75,-0.75 0,-0.41 0.34,-0.75 0.75,-0.75 0.11,0 0.19,-0.08995 0.19,-0.19995 0,-0.11 -0.09,-0.19 -0.19,-0.19 -0.41,0 -0.75,-0.34 -0.75,-0.75 0,-0.41 0.34,-0.75 0.75,-0.75 0.93,0 1.69,0.76 1.69,1.69 0,0.93 -0.75,1.69995 -1.69,1.69995 z"
   stroke-linecap="round"
   id="path4" />
</g>
		
		
</g>
</g>
</svg>
